<?xml version="1.0" encoding="iso-8859-1"?>
<!-- Generator: Adobe Illustrator 21.0.2, SVG Export Plug-In . SVG Version: 6.00 Build 0)  -->
<svg version="1.1" xmlns="http://www.w3.org/2000/svg" xmlns:xlink="http://www.w3.org/1999/xlink" x="0px" y="0px"
	 viewBox="0 0 11.198 18.797" style="enable-background:new 0 0 11.198 18.797;" xml:space="preserve">
<g id="Southernhay_x5F_Chambers">
	<path d="M9.617,0.037c0.182-0.107,0.394,0.034,0.387,0.24c0.02,1.478-0.017,2.957-0.019,4.435c0.024,0.192-0.243,0.272-0.345,0.119
		C9.364,4.451,9.327,3.965,9.149,3.54C8.757,2.598,8.164,1.692,7.303,1.118C5.96,0.358,3.982,0.496,2.96,1.731
		c-0.828,1.079-0.615,2.73,0.379,3.634c1.78,1.662,4.132,2.513,5.994,4.073c1.866,1.429,2.285,4.145,1.47,6.257
		c-0.623,1.482-1.938,2.66-3.485,3.102c1.431-0.993,1.832-3.149,0.769-4.551c-0.239-0.294-0.478-0.597-0.79-0.817
		c-1.702-1.254-3.721-2.041-5.29-3.481C0.731,8.861-0.024,7.197,0.01,5.52c-0.116-1.805,0.83-3.595,2.342-4.572
		C3.933-0.085,6.012-0.19,7.752,0.495C8.188,0.628,8.588,0.922,9.056,0.92C9.467,0.819,9.41,0.308,9.617,0.037z"/>
</g>
<g id="Layer_1">
</g>
</svg>
